<?xml version="1.0" encoding="us-ascii" standalone="no"?><svg xmlns="http://www.w3.org/2000/svg" xmlns:xlink="http://www.w3.org/1999/xlink" contentStyleType="text/css" height="240px" preserveAspectRatio="none" style="width:422px;height:240px;background:#FFFFFF;" version="1.1" viewBox="0 0 422 240" width="422px" zoomAndPan="magnify"><defs/><g><!--entity RA--><g id="elem_RA"><ellipse cx="67.5" cy="90.57" fill="#F1F1F1" rx="8" ry="8" style="stroke:#181818;stroke-width:0.5;"/><path d="M67.5,98.57 L67.5,125.57 M54.5,106.57 L80.5,106.57 M67.5,125.57 L54.5,140.57 M67.5,125.57 L80.5,140.57 " fill="none" style="stroke:#181818;stroke-width:0.5;"/><text fill="#000000" font-family="sans-serif" font-size="14" lengthAdjust="spacing" textLength="123" x="6" y="155.6052">Wissenschaftler:in</text></g><g id="elem_Definition"><ellipse cx="302.7128" cy="32.318" fill="#F1F1F1" rx="60.9828" ry="26.318" style="stroke:#181818;stroke-width:0.5;"/><text fill="#000000" font-family="sans-serif" font-size="14" lengthAdjust="spacing" textLength="55" x="275.2128" y="27.3648">Kohorte</text><text fill="#000000" font-family="sans-serif" font-size="14" lengthAdjust="spacing" textLength="70" x="267.7128" y="43.8531">definieren</text></g><g id="elem_Selektion"><ellipse cx="302.7083" cy="120.318" fill="#F1F1F1" rx="64.5183" ry="26.318" style="stroke:#181818;stroke-width:0.5;"/><text fill="#000000" font-family="sans-serif" font-size="14" lengthAdjust="spacing" textLength="40" x="282.7083" y="115.3648">Daten</text><text fill="#000000" font-family="sans-serif" font-size="14" lengthAdjust="spacing" textLength="75" x="265.2083" y="131.8531">selektieren</text></g><g id="elem_Anfragen"><ellipse cx="302.7113" cy="208.3231" fill="#F1F1F1" rx="113.7113" ry="26.4031" style="stroke:#181818;stroke-width:0.5;"/><text fill="#000000" font-family="sans-serif" font-size="14" lengthAdjust="spacing" textLength="144" x="227.7113" y="204.0965">Machbarkeitsanfrage</text><text fill="#000000" font-family="sans-serif" font-size="14" lengthAdjust="spacing" textLength="45" x="277.2113" y="220.5848">stellen</text></g><!--link RA to Definition--><g id="link_RA_Definition"><path d="M129.47,97.31 C169.01,82.39 214.0862,65.3778 250.2162,51.7478 " fill="none" id="RA-to-Definition" style="stroke:#181818;stroke-width:1.0;"/><polygon fill="#181818" points="255.83,49.63,245.9974,49.0642,251.1518,51.3948,248.8211,56.5492,255.83,49.63" style="stroke:#181818;stroke-width:1.0;"/></g><!--link RA to Selektion--><g id="link_RA_Selektion"><path d="M129.47,120.32 C162.8,120.32 198.06,120.32 231.84,120.32 " fill="none" id="RA-to-Selektion" style="stroke:#181818;stroke-width:1.0;"/><polygon fill="#181818" points="237.84,120.32,228.84,116.32,232.84,120.32,228.84,124.32,237.84,120.32" style="stroke:#181818;stroke-width:1.0;"/></g><!--link RA to Anfragen--><g id="link_RA_Anfragen"><path d="M129.47,143.32 C164.15,156.41 201.8061,170.6224 236.2961,183.6324 " fill="none" id="RA-to-Anfragen" style="stroke:#181818;stroke-width:1.0;"/><polygon fill="#181818" points="241.91,185.75,234.9009,178.831,237.2318,183.9853,232.0774,186.3162,241.91,185.75" style="stroke:#181818;stroke-width:1.0;"/></g><!--SRC=[POwn2W9134Jx_OfWurdu0nR2gPtOA69pJJpdtE2IXKri_7hFaqF5SXulCqded3nJaMjqkaX1wv8r16uz5vgSn0ngRUJE4yf2T49ijAy3XIaT3RHcWz6_5wfjZhau6hsW4nKKwEnrN6s6_DgPXMh33ctKa73pB-dm1eEpupQUkTmWRgnTuMlVQewKHhj-qrxktrhX8OXtxNFOrpIVBtytH_OrCQ9F3z4J]--></g></svg>